<svg width="20" height="20" viewBox="0 0 20 20" fill="none" xmlns="http://www.w3.org/2000/svg">
<g clip-path="url(#clip0_119_80)">
<path d="M14.5834 3.75C12.9584 3.75 11.2084 4.08333 10 5C8.79171 4.08333 7.04171 3.75 5.41671 3.75C4.20837 3.75 2.92504 3.93333 1.85004 4.40833C1.24171 4.68333 0.833374 5.275 0.833374 5.95V15.35C0.833374 16.4333 1.85004 17.2333 2.90004 16.9667C3.71671 16.7583 4.58337 16.6667 5.41671 16.6667C6.71671 16.6667 8.10004 16.8833 9.21671 17.4333C9.71671 17.6833 10.2834 17.6833 10.775 17.4333C11.8917 16.875 13.275 16.6667 14.575 16.6667C15.4084 16.6667 16.275 16.7583 17.0917 16.9667C18.1417 17.2417 19.1584 16.4417 19.1584 15.35V5.95C19.1584 5.275 18.75 4.68333 18.1417 4.40833C17.075 3.93333 15.7917 3.75 14.5834 3.75ZM17.5 14.3583C17.5 14.8833 17.0167 15.2667 16.5 15.175C15.875 15.0583 15.225 15.0083 14.5834 15.0083C13.1667 15.0083 11.125 15.55 10 16.2583V6.66667C11.125 5.95833 13.1667 5.41667 14.5834 5.41667C15.35 5.41667 16.1084 5.49167 16.8334 5.65C17.2167 5.73333 17.5 6.075 17.5 6.46667V14.3583Z" fill="#03A651"/>
<path d="M11.6501 9.17499C11.3834 9.17499 11.1418 9.00833 11.0584 8.74166C10.9501 8.41666 11.1334 8.05833 11.4584 7.95833C12.7418 7.54166 14.4001 7.40833 15.9251 7.58333C16.2668 7.625 16.5168 7.93333 16.4751 8.275C16.4334 8.61666 16.1251 8.86666 15.7834 8.82499C14.4334 8.66666 12.9584 8.79166 11.8418 9.14999C11.7751 9.15833 11.7084 9.17499 11.6501 9.17499Z" fill="#03A651"/>
<path d="M11.6501 11.3917C11.3834 11.3917 11.1418 11.225 11.0584 10.9583C10.9501 10.6333 11.1334 10.275 11.4584 10.175C12.7334 9.75834 14.4001 9.625 15.9251 9.8C16.2668 9.84167 16.5168 10.15 16.4751 10.4917C16.4334 10.8333 16.1251 11.0833 15.7834 11.0417C14.4334 10.8833 12.9584 11.0083 11.8418 11.3667C11.7751 11.3833 11.7084 11.3917 11.6501 11.3917Z" fill="#03A651"/>
<path d="M11.6501 13.6083C11.3834 13.6083 11.1418 13.4417 11.0584 13.175C10.9501 12.85 11.1334 12.4917 11.4584 12.3917C12.7334 11.975 14.4001 11.8417 15.9251 12.0167C16.2668 12.0583 16.5168 12.3667 16.4751 12.7083C16.4334 13.05 16.1251 13.2917 15.7834 13.2583C14.4334 13.1 12.9584 13.225 11.8418 13.5833C11.7751 13.6 11.7084 13.6083 11.6501 13.6083Z" fill="#03A651"/>
</g>
<defs>
<clipPath id="clip0_119_80">
<rect width="20" height="20" fill="white"/>
</clipPath>
</defs>
</svg>
